<svg width="136" height="35" viewBox="0 0 136 35" fill="none" xmlns="http://www.w3.org/2000/svg">
<path fill-rule="evenodd" clip-rule="evenodd" d="M15.4854 15.6874V15.6387C12.8305 14.4056 9.48896 12.5774 6.14461 9.91083C0.441546 5.36741 5.79992 0.331887 11.1099 0.331887C14.5511 0.331887 17.5507 2.10863 19.2229 4.82666C19.2229 4.82666 19.3198 5.02408 19.4679 4.92394C19.616 4.8753 19.5163 4.72653 19.5163 4.72653C17.7957 1.91121 14.6508 0.0371942 11.1099 0.0371942C5.65463 0.0371942 1.22778 4.43183 1.22778 9.91083C1.22778 12.626 3.09652 15.0465 5.89962 16.4284C7.32396 17.2696 14.5026 21.1692 18.092 23.192C24.2366 26.6997 18.4851 34.3016 11.0614 34.3016C5.11338 34.3016 0.296263 30.0071 0.296263 24.7227C0.296263 24.5768 0.244987 24.4767 0.148131 24.4767C0 24.4767 0 24.6254 0 24.7227C0 30.1559 4.91682 34.5992 11.0614 34.5992C17.1576 34.5992 22.1229 30.1559 22.1229 24.7227C22.1229 20.6743 20.8922 18.2566 15.4854 15.6874ZM23.9717 4.73511L23.8976 4.54914C24.2822 4.38606 24.5927 4.21439 24.8149 4.03414C25.0399 3.85389 25.2365 3.62214 25.396 3.3389C25.6467 2.90401 25.7863 2.48343 25.8233 2.07429C25.6609 2.12865 25.5213 2.1544 25.4017 2.1544C25.0741 2.1544 24.8063 2.05713 24.5984 1.86257C24.3876 1.66802 24.2822 1.41338 24.2822 1.09866C24.2822 0.798245 24.3876 0.540747 24.5984 0.326165C24.8092 0.108722 25.0599 0 25.3533 0C25.7122 0 26.0028 0.143055 26.225 0.432025C26.4472 0.720996 26.5554 1.10152 26.5554 1.57932C26.5554 2.04854 26.4443 2.51204 26.2193 2.97268C25.9942 3.43331 25.698 3.80525 25.3276 4.10281C24.9374 4.41467 24.4844 4.62639 23.9717 4.73511ZM34.3608 0.529302C34.2611 0.18311 34.113 0.0371942 33.868 0.0371942C33.7198 0.0371942 33.7198 0.0858328 33.6714 0.18311L23.6441 34.3531C23.5928 34.4504 23.6441 34.5992 23.6925 34.5992C23.7893 34.6478 23.889 34.5992 23.9375 34.4504L29.6405 15.0207H34.2127L39.9642 31.4806C40.5538 33.1601 41.7845 34.4991 43.7016 34.6478H45.3225C45.7156 34.6478 46.1572 34.3016 46.0119 33.9068L34.3608 0.529302ZM29.7374 14.726L31.7058 7.95384L34.113 14.726H29.7374ZM54.0737 34.5992C54.3671 34.5992 54.6634 34.3016 54.6634 34.007V0.629441C54.6634 0.283248 54.3671 0.0371942 54.0737 0.0371942H50.3362C49.9944 0.0371942 49.7465 0.283248 49.7465 0.629441V30.4506C49.7465 32.7223 51.5668 34.5992 53.8771 34.5992H54.0737ZM69.411 9.81355C68.3313 9.81355 66.4142 10.4058 64.4942 11.7391V0.529302C64.4942 0.23461 64.2007 0.0371942 63.9045 0.0371942H60.1699C59.8252 0.0371942 59.5802 0.23461 59.5802 0.529302V33.9068C59.5802 34.253 59.8252 34.5992 60.1699 34.5992H63.9045C64.2007 34.5992 64.4942 34.253 64.4942 33.9068V31.5378C65.9698 33.2659 67.5935 34.4991 69.411 34.4991C76.7862 34.4991 79.2446 29.0201 79.2446 22.1563C79.2446 15.3412 76.7862 9.81355 69.411 9.81355ZM69.411 34.1557C67.7901 34.1557 66.0695 32.8711 64.4942 31.0944V13.2698L62.332 14.603C62.5286 14.1081 62.8248 13.6646 63.2179 13.2698C63.6595 12.7748 64.4457 12.2312 64.4942 12.1825C66.6079 10.6518 68.7244 10.2084 69.3626 10.2084C72.9519 10.2084 74.0828 15.6387 74.0828 22.2049C74.1312 28.7225 72.8522 34.1557 69.411 34.1557ZM99.7922 15.1438C99.8919 15.1438 99.9403 15.0465 99.9403 14.9979C99.9403 14.8977 99.8919 14.8491 99.8435 14.7489C98.0231 11.7877 95.22 9.91083 92.0267 9.91083C86.5686 9.91083 82.193 15.4413 82.193 22.2536C82.193 29.0687 86.5686 34.5992 92.0267 34.5992C95.1716 34.5992 97.9747 32.7223 99.7437 29.8584C99.7922 29.8097 99.8435 29.7096 99.7437 29.661C99.6469 29.6123 99.5472 29.7096 99.5472 29.7096C98.4647 31.4377 97.0403 32.771 95.3682 33.5606C95.2713 33.6121 95.1716 33.6608 95.0748 33.6608C92.5651 34.3531 89.1751 29.8097 87.4545 23.4896C86.617 20.3796 86.372 17.4155 86.617 15.1438H99.7922ZM88.5855 10.998C88.5855 10.998 88.8789 10.8493 88.9786 10.8006C90.551 10.4058 92.4682 12.0338 94.0891 14.8491H86.6683C86.9617 12.8749 87.5998 11.4902 88.5855 10.998ZM108.543 11.885V10.5031C108.543 10.1569 108.25 9.91083 107.954 9.91083H104.216C103.874 9.91083 103.626 10.1569 103.626 10.5031V34.007C103.626 34.3016 103.874 34.5992 104.216 34.5992H107.954C108.25 34.5992 108.543 34.3016 108.543 34.007V13.3184L106.381 14.6517C107.512 12.0853 111.495 10.1569 116.212 10.1569C116.212 10.1569 116.312 10.1569 116.312 10.011C116.312 9.91083 116.212 9.91083 116.212 9.91083C113.164 9.91083 110.412 10.6519 108.543 11.885ZM125.408 9.91083C119.949 9.91083 115.574 15.4413 115.574 22.2536C115.574 29.0687 119.949 34.5992 125.408 34.5992C130.814 34.5992 135.238 29.0687 135.238 22.2536C135.238 15.4413 130.814 9.91083 125.408 9.91083ZM128.453 33.6608C125.946 34.3531 122.505 29.8097 120.833 23.4896C119.163 17.1694 119.801 11.4902 122.357 10.8493C124.866 10.1569 128.256 14.7003 129.928 21.0205C131.601 27.3406 130.962 33.0199 128.453 33.6608Z" fill="#E8D6AC"/>
</svg>
