<svg width="26" height="31" viewBox="0 0 26 31" fill="none" xmlns="http://www.w3.org/2000/svg">
<path d="M4.91187 8.80402C5.19527 9.62991 6.34572 10.9626 6.88552 11.5257C6.88552 5.00301 10.9846 1.48357 11.4907 0.920455C11.9967 0.357343 13.1607 -0.487324 13.2113 0.357343C13.3125 2.89135 14.6789 5.56612 15.691 6.36387C16.5007 7.00206 17.4454 9.38277 17.8165 10.4934C18.0526 10.1805 18.5958 9.26389 18.8792 8.10013C19.1626 6.93636 20.0769 7.20853 20.4986 7.49009C24.8507 10.3526 33.2514 30.0615 13.1607 31C-6.82878 29.733 1.67307 11.2911 2.48277 9.60176C3.29247 7.91242 3.69732 7.81857 3.95035 7.81857C4.20338 7.81857 4.55763 7.77164 4.91187 8.80402Z" fill="#FF0D0D"/>
</svg>
